<svg id="06c42c9d-6d9c-45ee-a61b-17902c1dca73" data-name="Layer 1" xmlns="http://www.w3.org/2000/svg" xmlns:xlink="http://www.w3.org/1999/xlink" width="1145.57" height="819.91" viewBox="0 0 1145.57 819.91"><defs><linearGradient id="2f697947-2a6f-450c-95af-56e5336b1d5f" x1="591.3" y1="646.08" x2="591.3" y2="107.75" gradientUnits="userSpaceOnUse"><stop offset="0" stop-color="gray" stop-opacity="0.25"/><stop offset="0.54" stop-color="gray" stop-opacity="0.12"/><stop offset="1" stop-color="gray" stop-opacity="0.1"/></linearGradient><linearGradient id="2563b911-9cd4-457d-b636-acc38b40f33a" x1="944.34" y1="854.67" x2="944.34" y2="289.29" xlink:href="#2f697947-2a6f-450c-95af-56e5336b1d5f"/></defs><title>security</title><path d="M1154.4,591.26c-26.57,54.81-80.52,91.46-136.43,115.63-75.27,32.55-158.16,45.46-239.91,40q-21.49-1.43-42.85-4.57a540.44,540.44,0,0,1-143.27-41.72q-19.74-8.89-38.68-19.41a494.85,494.85,0,0,1-60.46-39.54q-7.23-5.52-14.26-11.32c-3.25-2.68-6.47-5.42-9.74-8.08-6.9-5.61-14-10.94-21.92-14.93a78.31,78.31,0,0,0-7.34-3.24c-25.08-9.54-54-5.94-80.11,1.5-19.86,5.66-39.22,13.41-59.06,18.94a196,196,0,0,1-26.91,5.72A143.21,143.21,0,0,1,213,624.93l-1.67-.52q-4.2-1.32-8.33-2.89l-1.67-.64q-4-1.54-7.83-3.31l-1.67-.76q-4-1.86-7.83-3.93c-.92-.48-1.83-1-2.73-1.49a163.67,163.67,0,0,1-39.16-30.49c-.33-.33-.64-.67-1-1-1.59-1.72-3.15-3.47-4.66-5.26-.56-.66-1.12-1.32-1.67-2q-2.69-3.28-5.19-6.71c-.25-.33-.49-.67-.73-1A144.59,144.59,0,0,1,112,534.44c-.14-.33-.27-.67-.39-1q-2-5.15-3.65-10.47c-.45-1.48-.88-3-1.26-4.48-.13-.44-.25-.89-.36-1.33-5.52-21.73-6.15-44.32-6.15-66.78q0-3.93,0-7.85c.16-36.33.72-73.28,6.08-109.11,0-.25.07-.5.11-.74a340.76,340.76,0,0,1,7.31-35.82A264.25,264.25,0,0,1,126,260.56c12.33-29,30.26-55.39,50.17-79.85C226.32,119.16,292.09,67.49,369.07,48.15c82.95-20.83,175.14-.87,242.05,52.4,20.4,16.24,38.73,35.47,61.64,47.92,20,10.84,43.41,15.33,64.83,6.8,17.7-7.05,29.22-10.55,49.1-9.48A411.56,411.56,0,0,1,907.05,171c1.56.57,3.12,1.16,4.67,1.75C1012.43,211.28,1099,287.83,1144,386.2q1.79,3.9,3.47,7.86C1174.3,456.73,1184,530.18,1154.4,591.26Z" transform="translate(-26.97 -40.04)" fill="#50466d" opacity="0.1"/><rect x="116.14" y="107.75" width="950.33" height="538.33" rx="12.49" ry="12.49" fill="url(#2f697947-2a6f-450c-95af-56e5336b1d5f)"/><rect x="117.65" y="115.32" width="947.42" height="528.97" rx="12.49" ry="12.49" fill="#fff"/><rect x="117.65" y="115.32" width="947.42" height="528.97" rx="12.49" ry="12.49" fill="#fff"/><rect x="117.65" y="115.32" width="947.42" height="528.97" rx="12.49" ry="12.49" fill="#fff" opacity="0.04"/><path d="M1087.23,149.29H149.43a4.81,4.81,0,0,0-4.81,4.81v20.33H1092V154.1A4.81,4.81,0,0,0,1087.23,149.29Z" transform="translate(-26.97 -40.04)" fill="#5a5773"/><g id="6c975d28-8d47-4ade-9154-b3b78f637b65" data-name="buttons"><circle cx="136.57" cy="121.82" r="6.5" fill="#fff"/><circle cx="154.07" cy="121.82" r="6.5" fill="#fff"/><circle cx="171.57" cy="121.82" r="6.5" fill="#fff"/></g><rect x="195.68" y="268.2" width="791.36" height="331.96" fill="#5a5773" opacity="0.1"/><path d="M686,329.89H672.45V303.57c0-29.7-23.68-54.39-53.38-54.84a54.28,54.28,0,0,0-54.85,54.11v27.05H550.7a22.62,22.62,0,0,0-22.55,22.55V460.66a22.62,22.62,0,0,0,22.55,22.55H686a22.61,22.61,0,0,0,22.54-22.55V352.44A22.61,22.61,0,0,0,686,329.89Zm-59.75,70.35V439a8.09,8.09,0,0,1-7.5,8.12,7.91,7.91,0,0,1-8.28-7.9v-39a18,18,0,1,1,15.78,0Zm30.44-70.35H580V302.84a38.33,38.33,0,0,1,76.66,0Z" transform="translate(-26.97 -40.04)" opacity="0.1"/><path d="M686,327.89H672.45V301.57c0-29.7-23.68-54.39-53.38-54.84a54.28,54.28,0,0,0-54.85,54.11v27.05H550.7a22.62,22.62,0,0,0-22.55,22.55V458.66a22.62,22.62,0,0,0,22.55,22.55H686a22.61,22.61,0,0,0,22.54-22.55V350.44A22.61,22.61,0,0,0,686,327.89Zm-59.75,70.35V437a8.09,8.09,0,0,1-7.5,8.12,7.91,7.91,0,0,1-8.28-7.9v-39a18,18,0,1,1,15.78,0Zm30.44-70.35H580V300.84a38.33,38.33,0,0,1,76.66,0Z" transform="translate(-26.97 -40.04)" fill="#50466d"/><rect x="906.94" y="236.25" width="80.1" height="18.91" fill="#5a5773" opacity="0.1"/><path d="M891.37,493.1v0a23.25,23.25,0,0,1-.57,4c0-.37,0-.58-.08-.61C890.42,496.41,890.78,494.88,891.37,493.1Z" transform="translate(-26.97 -40.04)" opacity="0.1"/><g opacity="0.1"></g><g opacity="0.1"></g></svg>